<?xml version="1.0" encoding="utf-8"?>
<!-- Generator: Adobe Illustrator 16.0.0, SVG Export Plug-In . SVG Version: 6.00 Build 0)  -->
<!DOCTYPE svg PUBLIC "-//W3C//DTD SVG 1.1//EN" "http://www.w3.org/Graphics/SVG/1.1/DTD/svg11.dtd">
<svg version="1.1" id="Layer_1" xmlns="http://www.w3.org/2000/svg" xmlns:xlink="http://www.w3.org/1999/xlink" x="0px" y="0px"
	 width="370.637px" height="444.833px" viewBox="0 0 370.637 444.833" enable-background="new 0 0 370.637 444.833"
	 xml:space="preserve">
<path id="california-outline" fill="none" stroke="#010101" stroke-width="4" stroke-miterlimit="10" d="M158.83,9.805
	c-1.089,21.461,1.269,40.267-1.97,61.903c-1.634,10.912-1.81,22.314-0.13,33.185c1.688,10.92,0.787,22.198,2.778,32.833
	c4.171,22.265,22.471,28.233,37.237,42.83c16.225,16.037,34.963,28.562,49.434,45.968c8.186,9.847,18.475,16.945,27.537,25.653
	c11.186,10.749,19.846,22.72,31.699,32.732c10.768,9.096,19.111,20.051,28.812,29.835c7.877,7.943,19.348,13.434,24.523,23.764
	c4.461,8.902,11.996,24.318,9.328,34.549c-1.365,5.235-4.947,10.713-6.664,15.989c-2.129,6.538-4.609,12.704-5.885,19.313
	c-1.424,7.378-1.121,9.812,2.848,15.999c3.129,4.879,5.256,10.872,0.004,16.061c-4.236,4.184-9.18,1.924-14.172,0.659
	c-5.793-1.468-10.344-0.811-15.998-0.035c-12.725,1.746-26.746-1.328-40.186-0.702c-10.398,0.483-30.02,6.243-35.629-4.114
	c-5.531-10.213-8.104-22.813-14.334-32.484c-6.521-10.121-16.895-17.055-27.164-23.2c-21.398-12.805-45.485-14.227-66.703-23.668
	c-9.223-4.104-18.403-9.891-15.353-21.203c1.502-5.569,4.104-8.627,1.551-14.775c-2.011-4.843-7.003-9.859-11.03-13.021
	c-4.976-3.904-11.383-6.361-15.82-10.982c-4.7-4.895-4.791-11.196-8.15-16.369c-4.179-6.435-10.472-8.33-13.017-16.279
	c-1.968-6.146-2.448-18.893,7.585-16.488c-5.152-14.958-26.199-27.141-23.65-45.28c4.704-0.396,8.735,1.642,13.132,1.132
	c0.642-3.232-1.246-5.115-1.398-7.899c-0.279-5.112-0.979-2.395,1.662-5.836c3.141-4.094,9.183-5.503,6.335-12.179
	c-5.2-12.193-21.819-5.979-22.499,5.349c-0.279,4.65,2.203,12.75-5.998,11.328c-6.062-1.051-5.353-8.931-7.304-13.363
	c-4.345-9.869-10.284-19.415-14.699-29.264c-4.553-10.157-14.264-19.249-15.852-30.424c-1.715-12.073,4.987-22.15-4.946-31.446
	C6.646,82.289-0.504,74.174,2.845,61.675c0.436-1.625,1.278-4.037,2.834-5.134c3.576-2.521,4.715,0.788,6.369,0.516
	c3.295-0.542,1.648,2.023,4.017-2.851c1.265-2.603,1.082-6.903,1.482-9.833c0.9-6.587,0.946-12.933-0.667-19.333
	c-1.307-5.188-3.676-8.791-1.151-13.815c5.399-10.74,18.79-7.508,28.484-7.519c26.837-0.028,53.269,2.666,79.333,0.016
	c8.182-0.832,34.671-5.934,35.333,6.651"/>
<path id="heart" fill="#D94226" d="M96.939,199.411c-1.701-5.84-11.817-14.709-13.617-4.424c-0.926,9.172,10.824,14.825,17.254,18.09
	C119.306,192.726,94.816,181.538,96.939,199.411"/>
</svg>
