<?xml version="1.0" encoding="utf-8"?>
<!-- Generator: Adobe Illustrator 16.0.0, SVG Export Plug-In . SVG Version: 6.00 Build 0)  -->
<!DOCTYPE svg PUBLIC "-//W3C//DTD SVG 1.1//EN" "http://www.w3.org/Graphics/SVG/1.1/DTD/svg11.dtd">
<svg version="1.1" id="Layer_1" xmlns="http://www.w3.org/2000/svg" xmlns:xlink="http://www.w3.org/1999/xlink" x="0px" y="0px"
	 width="410.366px" height="539.527px" viewBox="0 0 410.366 539.527" enable-background="new 0 0 410.366 539.527"
	 xml:space="preserve">
<path fill="none" stroke="#000000" stroke-width="3" stroke-miterlimit="10" d="M19.061,0.405
	c2.929,14.164-1.855,26.284-3.162,39.326c-0.356,3.559,1.78,15.36-0.395,17.904c-6.031,7.054-8.096-5.773-12.784-5.564
	c-1.563,13.407-2.871,30.175,4.4,42.693c4.32,7.437,8.082,9.869,10.046,18.594c2.164,9.613-1.572,15.658-1.899,24.678
	c-0.313,8.613,3.763,15.645,7.682,22.246c4.005,6.747,5.837,14.238,9.615,20.67c2.311,3.934,5.807,5.181,7.02,9.726
	c1.313,4.925-1.75,7.01-1.113,11.353c1.015,6.919,8.883,16.261,16.404,17.248c2.75,0.361,4.856,0.965,7.7-0.24
	c-0.43-8.127-1.609-17.115,9.257-16.677c8.802,0.354,12.448,8.318,13.919,15.738c-4.861-0.044-17.847-10.756-10.401,4.985
	c1.337,2.825,15.982,18.617,0.787,16.404c-6.568-0.957-12.309-16.215-14.114-0.92c-1.038,8.801,5.542,22.231,7.52,31.052
	c9.945,1.737,14.789,11.709,21.24,18.816c-5.968,3.475-16.286,0.723-18.652,9.226c-2.343,8.416,9.262,14.864,11.833,21.355
	c1.341,3.387,0.109,8.828,1.996,11.878c1.658,2.679,6.273,3.778,8.494,6.359c5.532,6.43,8.611,14.118,15.296,20.784
	c13.228,13.191,13.258,26.357,16.887,43.945c3.525,17.081,21.354,20.352,36.041,27.241c12.834,6.021,25.703,11.966,38.834,17.476
	c14.307,6.002,20.848,16.147,33.17,24.253c12.025,7.911,16.941,20.73,25.96,31.82c7.393,9.09-2.628,21.598,10.122,30.348
	c12.5,3.483,45.291,5.819,68.678,1.736c10.02-1.748,26.387-7.922,36.283-6.01c7.364,1.423,7.056,7.836,13.503,1.512
	c3.957-3.88,6.185-12.351-1.964-12.015c-1.639-5.895,3.261-5.258,4.367-9.428c1.104-4.164,0.336-6.758,0.014-11.418
	c-0.62-8.99-2.333-18.448,1.226-26.842c1.848-4.356,3.328-6.33,6.687-10.082c1.324-1.479,8.43-6.751,8.814-7.749
	c2.881-7.473-7.63-10.749-11.147-17.189c-4.371-8.004-2.608-17.026-8.529-24.689c-4.088-5.29-9.538-9.748-13.705-15.096
	c-9.608-12.332-21.034-23.604-30.995-35.513c-20.232-24.188-45.539-44.115-63.276-70.068c-8.552-12.513-21.463-23.089-32.249-34
	c-11.295-11.423-19.364-23.261-28.621-36.481c-8.947-12.782-21.176-22.737-32.23-34.036c-4.144-4.235-10.804-9.736-12.246-15.145
	c-1.491-5.589-0.064-17.292-0.266-23.521c-0.523-16.19,4.645-31.077,4.255-46.391c-0.411-16.167,0.246-31.617,1.903-47.989
	c1.28-12.649,6.488-40.018-7.58-44.409c-13.735-4.287-32.592,0.384-46.934-1.065c-15.61-1.578-31.537,0.318-46.96-1.798
	c-15.997-2.194-28.233-4.043-44.326-3.74C31.869,1.765,23.05,1.381,19.273,1.515"/>
<path fill="#D94226" d="M99.36,230.216c-1.701-5.84-11.816-14.709-13.617-4.424c-0.926,9.172,10.824,14.825,17.254,18.09
	C121.728,223.531,97.237,212.343,99.36,230.216"/>
</svg>
