<?xml version="1.0" encoding="utf-8"?>
<!-- Generator: Adobe Illustrator 16.0.0, SVG Export Plug-In . SVG Version: 6.00 Build 0)  -->
<!DOCTYPE svg PUBLIC "-//W3C//DTD SVG 1.1//EN" "http://www.w3.org/Graphics/SVG/1.1/DTD/svg11.dtd">
<svg version="1.1" id="Layer_1" xmlns="http://www.w3.org/2000/svg" xmlns:xlink="http://www.w3.org/1999/xlink" x="0px" y="0px"
	 width="371.61px" height="504.932px" viewBox="67.055 4 371.61 504.932" enable-background="new 67.055 4 371.61 504.932"
	 xml:space="preserve">
<g id="Layer_1_1_" display="none">
	
		<image display="inline" overflow="visible" enable-background="new    " width="348" height="596" xlink:href="../../../../../../Users/carolynchan/Downloads/california-clipart-3/california-clipart-3-transparent.png"  transform="matrix(0.8472 0 0 0.8472 109 4)">
	</image>
</g>
<g id="Layer_2">
	<g opacity="0.7">
		<g>
			<path d="M83.585,22.924c-1.421,7.583-2.338,15.089-3.025,22.775c-0.352,3.934,0.237,7.987,0.015,11.948
				c-0.04,0.719-0.072,3.922-1.404,3.623c-2.78-0.623-5.269-3.862-7.142-5.768c-0.914-0.93-2.842-0.726-3.162,0.714
				c-1.821,8.218-2.74,17.464-0.469,25.675c2.613,9.45,12.402,13.489,16.491,21.961c3.139,6.504,0.764,14.792,0.302,21.633
				c-0.385,5.699,1.374,10.356,4.085,15.275c2.992,5.429,6.978,10.286,10.295,15.514c3.118,4.915,5.663,9.858,7.891,15.246
				c3.891,9.411,6.952,30.402,20.776,28.313c6.113-0.924,4.293-8.637,3.635-12.693c-0.902-5.56,1.747-9.713,8.147-8.273
				c5.483,1.234,9.714,7.368,10.064,12.729c0.647-0.602,1.294-1.204,1.941-1.806c-3.068,0.007-5.926,1.095-8.988,1.103
				c-1.318,0.003-2.04,1.079-1.892,2.307c0.739,6.159,4.458,11.168,6.098,17.053c0.312-0.695,0.625-1.39,0.938-2.085
				c-6.049,2.762-11.193-1.467-15.753-4.999c-1.079-0.836-2.958,0.152-2.877,1.517c1.211,20.556,13.337,34.875,26.347,49.687
				c0.313-1.034,0.626-2.067,0.939-3.103c-8.863,1.037-12.699,7.531-11.638,16.017c0.504,4.037,2.282,8.26,4.773,11.446
				c1.611,2.062,3.955,3.679,6.021,5.25c3.569,2.711,5.578,4.933,6.86,9.277c1.452,4.92,2.721,8.236,6.651,11.68
				c4.007,3.513,9.022,5.564,13.574,8.234c5.917,3.469,9.869,9.1,12.768,15.199c3.59,7.557-0.409,12.9-1.541,20.201
				c-1.051,6.77,5.684,10.582,10.885,13.314c8.154,4.286,17.126,7.071,25.906,9.754c8.427,2.571,16.964,4.768,25.382,7.366
				c10.188,3.148,19.903,8.794,28.405,15.164c10.469,7.849,21.396,19.529,25.061,32.285c2.59,9.018,4.088,21.969,14.498,24.977
				c5.828,1.685,12.361,1.226,18.33,0.818c7.049-0.479,14.08-1.029,21.135-1.479c17.557-1.117,35.094-3.396,52.232-7.386
				c-0.693-0.312-1.391-0.625-2.086-0.938c1.084,1.606,1.725,3.283,2.186,5.151c0.311,1.25,1.604,1.697,2.713,1.22
				c6.906-2.979,10.332-8.517,9.896-16.029c-0.045-0.754-0.449-1.705-1.311-1.854c-5.965-1.039-3.568-14.195-3.064-18.08
				c1.123-8.672,3.404-17.326,6.365-25.546c1.148-3.192,2.627-5.965,4.381-8.86c1.477-2.433,4.041-6.019,3.322-9.101
				c-0.605-2.58-2.719-4.537-4.336-6.524c-4.111-5.054-7.408-11.047-10.088-16.97c-2.088-4.61-4.188-8.955-7.322-12.963
				c-4.785-6.121-11.137-11.371-16.729-16.744c-11.195-10.758-22.641-21.256-34.014-31.823
				c-11.359-10.556-22.639-21.197-33.586-32.182c-10.854-10.896-20.781-22.679-31.828-33.375
				c-15.037-14.562-30.914-28.625-46.821-42.234c-6.729-5.756-13.39-11.611-18.911-18.571c-6.66-8.396-8.809-17.469-9.457-27.964
				c-0.717-11.615-0.798-23.267-0.767-34.9c0.028-10.424-0.261-20.955,0.532-31.354c0.713-9.356,2.062-18.648,2.582-28.021
				c0.229-4.131,0.211-8.268-0.149-12.391c-0.369-4.222-1.968-7.697,0.146-11.679c0.594-1.118,0.164-2.328-1.021-2.793
				c-19.487-7.656-42.26-1.885-62.338-0.083c-12.396,1.112-24.274-0.476-36.604-1.437c-9.471-0.737-60.33-4.948-43.833,17.415
				c1.435,1.945,4.165-0.63,2.745-2.555c-1.913-2.593-3.746-6.116-0.476-8.389c3.412-2.372,8.3-2.821,12.308-3.196
				c11.673-1.092,23.589-0.048,35.229,0.981c11.379,1.007,22.017,1.746,33.491,0.648c18.796-1.797,40.11-6.975,58.351,0.192
				c-0.34-0.931-0.681-1.862-1.021-2.793c-2.067,3.895-2.035,6.233-1.192,10.372c1.226,6.025,0.835,12.418,0.44,18.509
				c-0.765,11.795-2.977,23.537-2.795,35.383c0.248,16.125-0.346,32.235,0.252,48.364c0.465,12.52,1.166,23.815,8.168,34.559
				c6.176,9.479,15.201,16.804,23.709,24.083c10.686,9.144,20.899,18.859,31.412,28.207c22.932,20.392,42.811,43.897,65.09,65.019
				c18.473,17.516,37.436,34.508,55.615,52.33c4.229,4.146,8.568,8.135,11.666,13.233c2.207,3.633,3.645,7.717,5.516,11.522
				c2.105,4.289,4.758,8.433,7.539,12.312c1.238,1.729,5.219,4.9,4.789,7.285c-0.59,3.275-3.355,6.322-4.92,9.166
				c-1.08,1.963-1.881,4.096-2.658,6.189c-2.488,6.707-4.248,13.721-5.59,20.737c-1.195,6.25-5.43,25.818,4.74,27.594
				c-0.438-0.618-0.873-1.237-1.312-1.856c0.367,6.303-2.121,10.356-7.922,12.858c0.904,0.406,1.809,0.812,2.713,1.222
				c-0.545-2.201-1.26-4.179-2.529-6.062c-0.479-0.709-1.201-1.143-2.086-0.938c-15.096,3.516-30.453,5.635-45.895,6.897
				c-11.771,0.963-23.973,2.326-35.789,2.146c-4.607-0.07-10.709-0.283-13.498-4.519c-2.912-4.424-4.113-10.157-5.525-15.192
				c-1.203-4.297-2.205-8.41-4.541-12.238c-3.113-5.104-6.727-9.906-10.686-14.387c-13.369-15.131-31.506-24.193-50.629-29.621
				c-9.354-2.654-18.72-5.27-27.906-8.471c-7.361-2.566-16.353-5.441-21.773-11.367c-2.954-3.23,0.725-9.443,1.699-13.035
				c1.39-5.125-0.102-10.246-2.311-14.896c-2.345-4.934-5.897-9.453-10.127-12.879c-3.956-3.201-8.874-5.084-13.179-7.75
				c-2.588-1.602-5.244-3.668-6.747-6.354c-1.37-2.449-1.78-5.57-2.659-8.221c-1.555-4.683-5.128-7.084-8.901-9.951
				c-8.049-6.117-13.482-23.303,0.896-24.986c1.477-0.175,1.779-2.147,0.939-3.104c-12.25-13.946-24.2-27.57-25.345-46.997
				c-0.959,0.506-1.918,1.011-2.877,1.517c5.9,4.569,12.114,8.523,19.535,5.135c0.736-0.336,1.151-1.318,0.938-2.085
				c-1.633-5.862-5.364-10.942-6.098-17.053c-0.631,0.769-1.261,1.538-1.892,2.307c3.068-0.008,5.926-1.096,8.988-1.104
				c0.941-0.002,2.01-0.757,1.941-1.806c-0.491-7.502-5.543-14.053-12.685-16.441c-6.389-2.137-13.117,2.029-13.306,8.724
				c-0.082,2.897,0.814,5.759,1.095,8.625c0.525,5.367-5.327,3.887-7.855,1.167c-4.709-5.066-5.398-12.645-8.099-18.743
				c-1.822-4.115-3.406-8.329-5.328-12.405c-2.548-5.405-6.105-10.313-9.518-15.196c-3.725-5.329-8.625-11.525-9.207-18.234
				c-0.569-6.557,1.4-13.11,1.079-19.697c-0.48-9.847-7.839-14.899-13.926-21.508c-7.242-7.862-5.769-21.061-3.637-30.681
				c-1.054,0.238-2.108,0.476-3.162,0.714c2.398,2.44,6.854,7.84,10.944,6.984c3.349-0.702,3.841-4.387,4.095-7.259
				c0.535-6.044-0.014-12.105,0.548-18.174c0.485-5.245,1.322-10.383,2.292-15.558C87.604,21.7,84.03,20.554,83.585,22.924
				L83.585,22.924z"/>
		</g>
	</g>
	<g>
		<path fill="#DB3E11" d="M166.588,204.792c-1.701-5.84-11.817-14.708-13.617-4.424c-0.925,9.172,10.824,14.826,17.254,18.091
			C188.956,198.108,164.465,186.92,166.588,204.792"/>
		<g>
			<path fill="#DB3E11" d="M167.195,204.643c-1.431-4.296-11.569-15.336-14.36-6.25c-3.225,10.5,9.583,16.809,17.075,20.605
				c0.237,0.12,0.56,0.124,0.752-0.091c4.548-5.082,11.711-16.407,4.131-22.292c-1.8-1.397-4.084-1.865-6.122-0.689
				c-2.932,1.693-2.995,5.96-2.707,8.856c0.079,0.793,1.33,0.819,1.25,0.018c-0.397-4.005,1.312-10.955,6.621-7.359
				c5.504,3.728,2.061,12.12-0.647,16.306c-0.769,1.188-1.676,2.279-2.587,3.358c-0.741,0.878-1.279,0.195-2.058-0.202
				c-1.525-0.778-3.026-1.597-4.505-2.459c-3.486-2.033-6.817-4.519-9.01-7.96c-2.031-3.187-2.364-11.717,3.441-9.899
				c3.429,1.074,6.427,5.094,7.514,8.357C166.234,205.704,167.449,205.408,167.195,204.643L167.195,204.643z"/>
		</g>
	</g>
</g>
</svg>
