<?xml version="1.0" encoding="utf-8"?>
<!-- Generator: Adobe Illustrator 16.0.0, SVG Export Plug-In . SVG Version: 6.00 Build 0)  -->
<!DOCTYPE svg PUBLIC "-//W3C//DTD SVG 1.1//EN" "http://www.w3.org/Graphics/SVG/1.1/DTD/svg11.dtd">
<svg version="1.1" id="Layer_1" xmlns="http://www.w3.org/2000/svg" xmlns:xlink="http://www.w3.org/1999/xlink" x="0px" y="0px"
	 width="368.402px" height="504.932px" viewBox="68.663 4 368.402 504.932" enable-background="new 68.663 4 368.402 504.932"
	 xml:space="preserve">
<g id="Layer_1_1_" display="none">
	
		<image display="inline" overflow="visible" enable-background="new    " width="348" height="596" xlink:href="../../../../../../Users/carolynchan/Downloads/california-clipart-3/california-clipart-3-transparent.png"  transform="matrix(0.8472 0 0 0.8472 109 4)">
	</image>
</g>
<g id="Layer_2">
	<g opacity="0.7">
		<g>
			<path d="M334.395,451.035c-3.805,0-6.826-0.361-9.51-1.137c-7.922-2.289-10.213-11.396-12.232-19.429
				c-0.395-1.562-0.766-3.037-1.17-4.453c-4.596-15.99-19.461-28.49-25.641-33.124c-9.772-7.322-19.493-12.508-28.893-15.412
				c-4.378-1.352-8.851-2.611-13.177-3.832c-4.015-1.131-8.163-2.301-12.211-3.535c-8.159-2.493-17.407-5.318-25.629-9.641
				c-5.548-2.914-10.892-6.215-10.048-11.652c0.316-2.047,0.885-3.979,1.434-5.846c1.36-4.625,2.766-9.406-0.027-15.287
				c-3.562-7.496-7.947-12.693-13.404-15.894c-1.405-0.823-2.862-1.596-4.272-2.342c-3.292-1.742-6.401-3.388-9.057-5.716
				c-3.705-3.246-4.803-6.295-6.171-10.93c-1.425-4.83-3.71-7.275-7.427-10.1l-0.894-0.673c-1.761-1.318-3.581-2.683-4.834-4.288
				c-2.321-2.971-3.983-6.954-4.446-10.659c-0.869-6.948,1.838-11.923,7.427-13.649l2.35-0.727l-1.616-1.854
				c-12.366-14.188-22.691-27.46-23.8-46.268c0.026-0.01,0.209-0.13,0.345-0.13l0.377,0.299c3.561,2.765,7.598,5.898,12.354,5.897
				c1,0,2.002-0.143,2.978-0.423l1.617-0.466l-0.546-1.591c-0.665-1.939-1.506-3.795-2.319-5.591
				c-1.448-3.196-2.815-6.214-3.219-9.577c-0.028-0.235,0.026-0.391,0.082-0.454c0.037-0.042,0.113-0.063,0.226-0.063
				c1.675-0.004,3.25-0.296,4.774-0.578c0.75-0.139,1.5-0.278,2.258-0.379l1.697-0.227l-0.341-1.678
				c-1.041-5.122-5.173-11.001-11.058-12.325c-0.963-0.217-1.888-0.327-2.749-0.327c-2.37,0-4.33,0.831-5.667,2.401
				c-1.604,1.886-2.195,4.732-1.663,8.016l0.162,0.959c0.462,2.688,1.16,6.751-0.244,8.694c-0.472,0.655-1.196,1.047-2.213,1.201
				c-0.559,0.084-1.109,0.127-1.636,0.127c-8.505,0-12.136-11.424-15.054-20.604c-0.806-2.534-1.566-4.927-2.368-6.866
				c-2.279-5.512-4.902-10.58-8.019-15.492c-1.347-2.124-2.816-4.205-4.236-6.218c-2.092-2.965-4.255-6.03-6.008-9.211
				c-2.25-4.082-4.278-8.65-3.89-14.395c0.11-1.635,0.333-3.353,0.569-5.17c0.725-5.594,1.547-11.935-1.026-17.266
				c-1.946-4.031-5.05-7.072-8.053-10.012c-3.602-3.528-7.004-6.86-8.337-11.68c-1.853-6.699-1.688-15.078,0.489-24.902l0,0
				c0.008,0,0.071-0.026,0.173-0.026c0.146,0,0.252,0.053,0.285,0.086c0.335,0.341,0.691,0.728,1.066,1.133
				c1.833,1.986,4.115,4.458,6.867,5.075c0.173,0.039,0.348,0.059,0.52,0.059c2.606,0,2.764-3.614,2.824-4.975l0.008-0.179
				c0.106-1.908,0.033-3.83-0.038-5.689c-0.083-2.157-0.161-4.194,0.019-6.205c0.733-8.206,1.63-15.081,2.822-21.636l0.117-0.646
				l-0.37-0.542c-2.326-3.409-2.956-6.179-1.87-8.233c2.259-4.276,12.01-6.631,27.458-6.631c7.319,0,13.9,0.514,17.062,0.761
				l0.334,0.026c2.406,0.188,4.795,0.399,7.173,0.609c6.735,0.596,13.699,1.212,20.632,1.212c3.202,0,6.167-0.126,9.065-0.386
				c4.404-0.396,8.824-0.966,13.504-1.57c8.409-1.085,17.104-2.207,25.549-2.207c8.746,0,16.125,1.229,22.557,3.755
				c0.079,0.031,0.218,0.099,0.257,0.206c0.031,0.084,0.009,0.211-0.063,0.347c-1.813,3.417-1.281,6.508-0.768,9.498
				c0.172,0.996,0.35,2.025,0.439,3.071c0.339,3.867,0.387,7.845,0.146,12.163c-0.292,5.262-0.857,10.605-1.406,15.773
				c-0.424,3.996-0.861,8.127-1.174,12.215c-0.617,8.106-0.582,16.379-0.55,24.38c0.011,2.367,0.021,4.732,0.015,7.091
				c-0.031,11.214,0.041,23.216,0.77,35.003c0.773,12.546,3.706,21.177,9.8,28.859c5.552,6.996,12.214,12.882,19.125,18.793
				c18.759,16.047,33.612,29.447,46.748,42.167c6.032,5.84,11.839,12.126,17.456,18.206c4.639,5.021,9.436,10.213,14.352,15.149
				c11.57,11.609,23.494,22.805,33.631,32.225c2.471,2.296,4.945,4.588,7.42,6.881c8.762,8.118,17.82,16.514,26.574,24.924
				c1.475,1.418,3.002,2.826,4.541,4.245c4.221,3.894,8.586,7.919,12.035,12.331c3.076,3.934,5.127,8.223,7.125,12.639
				c3.191,7.053,6.562,12.719,10.305,17.318c0.34,0.417,0.699,0.832,1.062,1.252c1.318,1.521,2.564,2.957,2.957,4.628
				c0.488,2.093-1.295,4.954-2.6,7.043c-0.188,0.3-0.367,0.589-0.533,0.862c-2.117,3.498-3.471,6.232-4.52,9.148
				c-3.205,8.899-5.375,17.607-6.445,25.883c-0.039,0.306-0.092,0.67-0.148,1.083c-0.805,5.667-2.471,17.424,4.408,18.757
				c0.043,0.078,0.096,0.225,0.104,0.396c0.398,6.868-2.605,11.735-8.932,14.465c-0.086,0.036-0.176,0.057-0.26,0.057
				c-0.221,0-0.248-0.111-0.268-0.192c-0.408-1.65-0.91-3.009-1.578-4.27l-0.574-1.082l-1.193,0.271
				c-15.691,3.568-32.258,5.871-50.641,7.041c-4.125,0.264-8.24,0.561-12.357,0.857c-2.928,0.211-5.854,0.423-8.783,0.621
				l-0.113,0.008C339.885,450.847,337.131,451.035,334.395,451.035z M132.093,208.943c2.468,17.879,14.097,31.12,25.344,43.922
				c0.08,0.093,0.087,0.402,0.012,0.501c-5.174,0.571-8.701,3.259-9.866,7.524c-1.896,6.938,2.737,16.09,8.253,20.281l0.867,0.655
				c3.33,2.509,6.206,4.676,7.484,8.526c0.283,0.854,0.517,1.768,0.764,2.733c0.499,1.952,1.015,3.972,2.017,5.765
				c1.391,2.484,3.779,4.752,7.302,6.933c1.673,1.036,3.441,1.96,5.15,2.854c2.841,1.483,5.524,2.887,7.864,4.779
				c4.018,3.254,7.459,7.63,9.688,12.321c2.585,5.44,3.287,9.823,2.212,13.791c-0.21,0.771-0.579,1.735-0.972,2.76
				c-1.465,3.821-3.287,8.578-0.364,11.774c5.389,5.891,13.772,8.797,21.169,11.36l1.259,0.437c8.654,3.017,17.591,5.551,26.233,8
				l1.763,0.5c21.36,6.062,38.138,15.867,49.866,29.142c4.031,4.562,7.57,9.326,10.52,14.16c1.994,3.27,2.979,6.828,4.021,10.597
				l0.344,1.24c0.229,0.809,0.447,1.636,0.672,2.472c1.217,4.545,2.475,9.244,5.059,13.169c3.334,5.063,10.52,5.174,14.811,5.238
				c0.725,0.012,1.447,0.018,2.174,0.018c0.004,0,0.008,0,0.012,0c8.912,0,18.051-0.803,26.887-1.577
				c2.305-0.202,4.598-0.403,6.873-0.591c16.959-1.387,32.047-3.654,46.127-6.934c0.004-0.001,0.01-0.001,0.016-0.001
				c0.162,0,0.295,0.148,0.381,0.275c0.686,1.018,1.236,2.142,1.686,3.437l0.639,1.843l1.684-0.984
				c4.406-2.582,6.596-6.397,6.689-11.664l0.021-1.135l-1.062-0.396c-6.891-2.554-3.662-19.177-2.604-24.639l0.156-0.812
				c1.49-7.786,3.295-14.486,5.52-20.48c0.707-1.905,1.51-4.065,2.561-5.975c0.459-0.834,1.039-1.703,1.652-2.623
				c1.396-2.089,2.977-4.457,3.439-7.031c0.455-2.521-1.852-4.981-3.705-6.959c-0.555-0.594-1.08-1.152-1.357-1.541
				c-3.141-4.381-5.562-8.334-7.402-12.086c-0.668-1.358-1.297-2.793-1.904-4.18c-1.094-2.492-2.225-5.07-3.682-7.47
				c-2.887-4.75-6.814-8.577-10.615-12.278l-1.297-1.267c-11.18-10.96-22.84-21.777-34.115-32.238
				c-7.078-6.565-14.396-13.356-21.52-20.11c-9.709-9.203-19.127-19.035-28.234-28.541c-11.768-12.285-23.936-24.987-36.894-36.511
				c-4.09-3.636-8.205-7.393-12.185-11.027c-6.25-5.704-12.711-11.603-19.252-17.2l-2.033-1.735
				c-7.775-6.623-15.814-13.472-21.374-22.005c-6.554-10.054-7.412-20.328-7.91-33.745c-0.349-9.416-0.289-19.001-0.231-28.271
				c0.041-6.571,0.084-13.365-0.02-20.058c-0.111-7.284,0.713-14.698,1.511-21.868c0.487-4.379,0.991-8.908,1.281-13.387
				c0.383-5.911,0.815-12.609-0.47-18.931c-0.631-3.099-0.769-4.999,0.16-7.411l0.598-1.552l-1.573-0.537
				c-6.005-2.05-12.749-3.046-20.618-3.046c-8.248,0-16.623,1.078-24.723,2.121c-4.062,0.523-7.898,1.017-11.701,1.38
				c-3.782,0.362-7.612,0.538-11.711,0.538c-6.722,0-13.206-0.454-21.487-1.187c-8.07-0.714-16.415-1.452-24.764-1.452
				c-3.848,0-7.366,0.154-10.755,0.471c-4.185,0.392-9.33,0.873-13.073,3.476c-1.361,0.946-2.172,2.158-2.411,3.604
				c-0.441,2.667,1.223,5.3,2.513,7.049c0.047,0.064,0.075,0.123,0.083,0.18l0.016,0.112l0.032,0.109
				c0.015,0.052,0.016,0.113,0.001,0.187c-1.175,6.269-1.888,11.113-2.313,15.709c-0.291,3.145-0.291,6.302-0.291,9.355
				c0,2.906,0,5.911-0.258,8.825c-0.292,3.297-0.866,5.423-2.829,5.834c-0.181,0.038-0.371,0.057-0.563,0.057
				c-2.42,0-5.438-3.023-6.429-4.016l-2.156-2.16l-0.55,3.001c-2.398,13.084-0.815,22.757,4.705,28.75
				c1.211,1.315,2.475,2.573,3.696,3.789c4.861,4.838,9.452,9.407,9.808,16.713c0.146,2.995-0.2,5.959-0.565,9.099
				c-0.404,3.467-0.822,7.053-0.509,10.659c0.557,6.427,4.655,12.196,8.271,17.287c0.415,0.584,0.824,1.16,1.219,1.725l0.875,1.249
				c3.065,4.372,6.235,8.892,8.508,13.713c1.11,2.354,2.129,4.812,3.115,7.189c0.706,1.701,1.435,3.46,2.198,5.182
				c0.878,1.984,1.533,4.125,2.226,6.392c1.379,4.512,2.805,9.178,6.165,12.792c1.62,1.744,4.229,2.961,6.343,2.961
				c1.327,0,2.437-0.451,3.211-1.304c0.876-0.967,1.235-2.336,1.065-4.069c-0.114-1.167-0.323-2.321-0.525-3.437
				c-0.313-1.734-0.609-3.371-0.563-4.987c0.124-4.408,3.684-7.732,8.28-7.732c0.983,0,1.965,0.162,2.919,0.481
				c6.49,2.169,11.15,8.208,11.596,15.028c-0.001,0-0.002,0-0.004,0c-0.036,0-0.212,0.102-0.345,0.102
				c-1.675,0.004-3.251,0.296-4.776,0.578c-0.716,0.132-1.433,0.266-2.155,0.366l-1.737,0.24l0.398,1.708
				c0.677,2.905,1.894,5.598,3.071,8.203c1.04,2.3,2.021,4.474,2.666,6.785c0.004,0.047-0.046,0.178-0.093,0.218
				c-1.63,0.74-3.246,1.109-4.909,1.109c-2.968,0-5.98-1.151-9.768-3.733l-2.979-2.032L132.093,208.943z"/>
		</g>
	</g>
	<g>
		<path fill="#DB3E11" d="M166.588,204.792c-1.701-5.84-11.817-14.708-13.617-4.424c-0.925,9.172,10.824,14.826,17.254,18.091
			C188.956,198.108,164.465,186.92,166.588,204.792"/>
		<g>
			<path fill="#DB3E11" d="M167.195,204.643c-1.431-4.296-11.569-15.336-14.36-6.25c-3.225,10.5,9.583,16.809,17.075,20.605
				c0.237,0.12,0.56,0.124,0.752-0.091c4.548-5.082,11.711-16.407,4.131-22.292c-1.8-1.397-4.084-1.865-6.122-0.689
				c-2.932,1.693-2.995,5.96-2.707,8.856c0.079,0.793,1.33,0.819,1.25,0.018c-0.397-4.005,1.312-10.955,6.621-7.359
				c5.504,3.728,2.061,12.12-0.647,16.306c-0.769,1.188-1.676,2.279-2.587,3.358c-0.741,0.878-1.279,0.195-2.058-0.202
				c-1.525-0.778-3.026-1.597-4.505-2.459c-3.486-2.033-6.817-4.519-9.01-7.96c-2.031-3.187-2.364-11.717,3.441-9.899
				c3.429,1.074,6.427,5.094,7.514,8.357C166.234,205.704,167.449,205.408,167.195,204.643L167.195,204.643z"/>
		</g>
	</g>
</g>
<line fill="none" stroke="#000000" stroke-miterlimit="10" x1="266.305" y1="99.318" x2="368.305" y2="99.318"/>
</svg>
